<svg xmlns="http://www.w3.org/2000/svg" viewBox="0 0 1024 1024">
  <defs>
    <linearGradient id="paper" x1="190" y1="92" x2="830" y2="892" gradientUnits="userSpaceOnUse">
      <stop offset="0" stop-color="#ffffff"/>
      <stop offset="1" stop-color="#ddeaf7"/>
    </linearGradient>
    <linearGradient id="photo" x1="250" y1="170" x2="800" y2="660" gradientUnits="userSpaceOnUse">
      <stop offset="0" stop-color="#91e8ff"/>
      <stop offset="0.46" stop-color="#2297ff"/>
      <stop offset="1" stop-color="#31469e"/>
    </linearGradient>
    <linearGradient id="mountain" x1="240" y1="455" x2="805" y2="670" gradientUnits="userSpaceOnUse">
      <stop offset="0" stop-color="#46d7a2"/>
      <stop offset="1" stop-color="#24ba8d"/>
    </linearGradient>
    <linearGradient id="accent" x1="186" y1="150" x2="880" y2="884" gradientUnits="userSpaceOnUse">
      <stop offset="0" stop-color="#55dcff"/>
      <stop offset="0.48" stop-color="#138eff"/>
      <stop offset="1" stop-color="#596eff"/>
    </linearGradient>
    <filter id="shadow" x="-25%" y="-25%" width="150%" height="150%">
      <feDropShadow dx="0" dy="26" stdDeviation="24" flood-color="#06101b" flood-opacity="0.36"/>
    </filter>
    <filter id="softShadow" x="-20%" y="-20%" width="140%" height="140%">
      <feDropShadow dx="0" dy="14" stdDeviation="14" flood-color="#06101b" flood-opacity="0.24"/>
    </filter>
  </defs>

  <g filter="url(#shadow)">
    <rect x="84" y="98" width="604" height="746" rx="74" fill="#dbe8f5" transform="rotate(-12 386 471)"/>
    <rect x="128" y="146" width="514" height="626" rx="42" fill="#1a2635" transform="rotate(-12 385 459)"/>
    <rect x="145" y="74" width="646" height="800" rx="80" fill="#eef6ff" transform="rotate(-5 468 474)"/>
    <rect x="194" y="126" width="548" height="676" rx="46" fill="#101927" transform="rotate(-5 468 464)"/>
  </g>

  <g filter="url(#softShadow)">
    <rect x="188" y="92" width="658" height="806" rx="88" fill="url(#paper)"/>
    <rect x="244" y="152" width="546" height="496" rx="50" fill="url(#photo)"/>
    <circle cx="360" cy="274" r="50" fill="#fff0a6"/>
    <path d="M244 580l156-184 94 112 116-152 180 218v74H244z" fill="#173257" opacity="0.72"/>
    <path d="M244 614l180-206 112 134 92-102 162 198v10H244z" fill="url(#mountain)"/>
    <rect x="292" y="700" width="190" height="34" rx="17" fill="#9ab0c7"/>
    <rect x="292" y="754" width="310" height="30" rx="15" fill="#c3d2e1"/>
  </g>

  <g>
    <path d="M176 512h696" stroke="#07101a" stroke-width="80" stroke-linecap="round" opacity="0.24"/>
    <path d="M170 512h708" stroke="url(#accent)" stroke-width="54" stroke-linecap="round"/>
    <path d="M524 124v766" stroke="#07101a" stroke-width="80" stroke-linecap="round" opacity="0.2"/>
    <path d="M524 116v782" stroke="url(#accent)" stroke-width="54" stroke-linecap="round"/>
    <circle cx="524" cy="512" r="72" fill="#f8fbff" stroke="#5fd9ff" stroke-width="32"/>
  </g>

  <g filter="url(#shadow)">
    <rect x="586" y="592" width="310" height="282" rx="72" fill="#f8fbff"/>
    <rect x="586" y="592" width="310" height="282" rx="72" fill="none" stroke="#c7d7e7" stroke-width="8"/>
    <path d="M742 658v104" stroke="#128dff" stroke-width="58" stroke-linecap="round"/>
    <path d="M668 730l74 74 74-74" fill="none" stroke="#128dff" stroke-width="58" stroke-linecap="round" stroke-linejoin="round"/>
    <path d="M672 826h140" stroke="#27c992" stroke-width="44" stroke-linecap="round"/>
  </g>
</svg>
